<svg width="227" height="33" viewBox="0 0 227 33" fill="none" xmlns="http://www.w3.org/2000/svg">
<rect width="46.7353" height="32.0471" rx="4" fill="#EBF3FA"/>
<path d="M19.9948 21.4753H17.3523L19.0051 11.2555H21.6475L19.9948 21.4753Z" fill="#00579F"/>
<path d="M29.5732 11.5054C29.052 11.2986 28.2253 11.0703 27.2031 11.0703C24.5935 11.0703 22.7559 12.4619 22.7446 14.4514C22.7229 15.9192 24.0603 16.7345 25.0605 17.2239C26.0829 17.7241 26.4304 18.0505 26.4304 18.4963C26.42 19.1809 25.6043 19.4965 24.8435 19.4965C23.7885 19.4965 23.2232 19.3338 22.3641 18.9529L22.0161 18.7896L21.6464 21.0838C22.2661 21.3661 23.408 21.6167 24.5935 21.6277C27.3662 21.6277 29.1713 20.2576 29.1927 18.1375C29.2033 16.9741 28.4971 16.0827 26.9746 15.3542C26.0504 14.8866 25.4844 14.5713 25.4844 14.0929C25.4952 13.6579 25.9631 13.2124 27.0064 13.2124C27.8655 13.1906 28.4967 13.3971 28.9748 13.6037L29.2138 13.7122L29.5732 11.5054Z" fill="#00579F"/>
<path d="M33.0867 17.8548C33.3043 17.2676 34.1417 14.9953 34.1417 14.9953C34.1307 15.0172 34.3589 14.3974 34.4894 14.0169L34.6741 14.8975C34.6741 14.8975 35.1745 17.3438 35.2831 17.8548C34.8702 17.8548 33.6086 17.8548 33.0867 17.8548ZM36.3486 11.2555H34.3046C33.6743 11.2555 33.1954 11.4401 32.9234 12.1034L28.9983 21.4751H31.771C31.771 21.4751 32.2275 20.2138 32.3256 19.9421C32.6298 19.9421 35.3271 19.9421 35.7184 19.9421C35.7943 20.3009 36.0337 21.4751 36.0337 21.4751H38.4804L36.3486 11.2555Z" fill="#00579F"/>
<path d="M15.1449 11.2555L12.557 18.2244L12.2742 16.811C11.7957 15.1802 10.2952 13.4083 8.62073 12.5272L10.9911 21.4644H13.7855L17.9391 11.2555H15.1449Z" fill="#00579F"/>
<path d="M10.1539 11.2555H5.90238L5.85889 11.462C9.17537 12.31 11.3718 14.3543 12.2742 16.8114L11.35 12.1145C11.1978 11.4618 10.7302 11.277 10.1539 11.2555Z" fill="#FAA61A"/>
<rect x="60.0883" width="46.7353" height="32.0471" rx="4" fill="#F5F4FF"/>
<path fill-rule="evenodd" clip-rule="evenodd" d="M85.1991 10.8719L82.825 11.3814V9.45659L85.1991 8.95653V10.8719ZM75.5515 10.051L73.2436 10.5416L73.2342 18.0993C73.2342 19.4957 74.2841 20.5241 75.6839 20.5241C76.4595 20.5241 77.027 20.3826 77.3391 20.2127V18.2974C77.0364 18.4201 75.542 18.8541 75.542 17.4577V14.1082H77.3391V12.0984H75.542L75.5515 10.051ZM100.815 16.2594C100.815 13.844 99.6419 11.9381 97.4003 11.9381C95.1492 11.9381 93.7872 13.844 93.7872 16.2405C93.7872 19.0805 95.3951 20.5147 97.703 20.5147C98.8285 20.5147 99.6798 20.2599 100.323 19.9014V18.0143C99.6798 18.3351 98.942 18.5333 98.0056 18.5333C97.0882 18.5333 96.2748 18.2125 96.1707 17.0991H100.796C100.796 17.0471 100.799 16.929 100.803 16.7929L100.803 16.7924L100.803 16.7919C100.809 16.6072 100.815 16.3896 100.815 16.2594ZM96.1423 15.363C96.1423 14.2969 96.7949 13.8534 97.3908 13.8534C97.9678 13.8534 98.5826 14.2969 98.5826 15.363H96.1423ZM69.9617 13.9855C69.4604 13.9855 69.1577 14.127 69.1577 14.495C69.1577 14.8968 69.6786 15.0735 70.3249 15.2928C71.3784 15.6502 72.765 16.1207 72.7708 17.8634C72.7708 19.5523 71.4183 20.5241 69.4509 20.5241C68.6375 20.5241 67.7484 20.3637 66.8688 19.9863V17.7407C67.6633 18.1748 68.6659 18.4956 69.4509 18.4956C69.9806 18.4956 70.359 18.354 70.359 17.92C70.359 17.475 69.7943 17.2716 69.1126 17.026C68.0744 16.652 66.7648 16.1802 66.7648 14.6082C66.7648 12.9382 68.0417 11.9381 69.9617 11.9381C70.7467 11.9381 71.5223 12.0607 72.3074 12.3721V14.5894C71.5885 14.2025 70.6805 13.9855 69.9617 13.9855ZM80.2808 12.7967L80.1295 12.0985H78.0865V20.3543H80.4511V14.7592C81.0091 14.0327 81.9549 14.1648 82.2481 14.2686V12.0985C81.9455 11.9852 80.8388 11.7777 80.2808 12.7967ZM82.8249 12.0985H85.1989V20.3543H82.8249V12.0985ZM88.2824 12.674C88.6134 12.3721 89.2093 11.9381 90.1362 11.9381C91.7914 11.9381 93.352 13.4288 93.3615 16.165C93.3615 19.156 91.8198 20.5147 90.1267 20.5147C89.2944 20.5147 88.7931 20.1656 88.4526 19.9203L88.4431 22.5904L86.0786 23.0905V12.089H88.1594L88.2824 12.674ZM88.4526 17.9955C88.6796 18.2408 89.0106 18.4389 89.5687 18.4389C90.4388 18.4389 91.0252 17.4954 91.0252 16.2311C91.0252 14.9951 90.4294 14.0327 89.5687 14.0327C89.0295 14.0327 88.689 14.2214 88.4431 14.495L88.4526 17.9955Z" fill="#6461FC"/>
<rect x="120.177" width="46.7353" height="32.0471" rx="4" fill="#F3FBFF"/>
<path d="M140.521 23.7266L140.807 21.9073L140.169 21.8925H137.122L139.24 8.46722C139.246 8.42669 139.268 8.3889 139.299 8.36206C139.33 8.33523 139.37 8.32044 139.412 8.32044H144.549C146.254 8.32044 147.431 8.67534 148.046 9.37581C148.334 9.70443 148.517 10.0478 148.606 10.4257C148.699 10.8222 148.701 11.296 148.61 11.8738L148.603 11.916V12.2862L148.891 12.4494C149.134 12.5781 149.327 12.7254 149.475 12.8941C149.721 13.1751 149.881 13.5321 149.948 13.9555C150.017 14.3909 149.994 14.909 149.881 15.4956C149.749 16.1703 149.537 16.758 149.25 17.2388C148.986 17.6819 148.649 18.0493 148.25 18.3342C147.869 18.6047 147.416 18.8102 146.904 18.9416C146.408 19.0708 145.842 19.136 145.221 19.136H144.822C144.536 19.136 144.258 19.239 144.04 19.4236C143.822 19.612 143.677 19.8693 143.633 20.1508L143.602 20.3146L143.096 23.5212L143.073 23.6389C143.067 23.6763 143.057 23.6949 143.042 23.7075C143.028 23.7189 143.008 23.7266 142.989 23.7266H140.521Z" fill="#253B80"/>
<path d="M149.163 11.9594C149.148 12.0574 149.13 12.1577 149.11 12.2606C148.433 15.7389 146.115 16.9405 143.155 16.9405H141.648C141.286 16.9405 140.981 17.2034 140.924 17.5605L140.152 22.4546L139.934 23.8418C139.897 24.0762 140.078 24.2877 140.315 24.2877H142.988C143.304 24.2877 143.573 24.0576 143.623 23.7455L143.649 23.6096L144.153 20.4155L144.185 20.2404C144.234 19.9271 144.504 19.6971 144.82 19.6971H145.22C147.81 19.6971 149.838 18.6455 150.43 15.6026C150.678 14.3314 150.55 13.27 149.895 12.5235C149.696 12.2984 149.45 12.1117 149.163 11.9594Z" fill="#179BD7"/>
<path d="M148.453 11.676C148.349 11.6459 148.243 11.6185 148.133 11.5938C148.023 11.5697 147.91 11.5484 147.794 11.5298C147.388 11.464 146.942 11.4328 146.465 11.4328H142.439C142.34 11.4328 142.246 11.4553 142.161 11.4958C141.976 11.5851 141.838 11.7609 141.804 11.9761L140.947 17.4014L140.923 17.5597C140.979 17.2026 141.284 16.9397 141.646 16.9397H143.154C146.114 16.9397 148.432 15.7376 149.109 12.2598C149.129 12.1568 149.146 12.0566 149.162 11.9586C148.99 11.8677 148.804 11.7899 148.605 11.7236C148.555 11.7072 148.504 11.6913 148.453 11.676Z" fill="#222D65"/>
<path d="M141.806 11.9765C141.84 11.7612 141.978 11.5854 142.164 11.4967C142.249 11.4562 142.342 11.4337 142.441 11.4337H146.468C146.945 11.4337 147.39 11.4649 147.796 11.5307C147.913 11.5493 148.025 11.5706 148.135 11.5947C148.245 11.6194 148.352 11.6468 148.455 11.6769C148.507 11.6922 148.558 11.7081 148.607 11.724C148.807 11.7903 148.993 11.8686 149.164 11.9589C149.366 10.6735 149.163 9.79836 148.468 9.00586C147.702 8.13342 146.319 7.7599 144.549 7.7599H139.412C139.05 7.7599 138.742 8.02278 138.686 8.38041L136.547 21.9437C136.504 22.212 136.711 22.4541 136.982 22.4541H140.154L140.95 17.4018L141.806 11.9765Z" fill="#253B80"/>
<rect x="180.265" width="46.7353" height="32.0471" rx="4" fill="#FFF4EE"/>
<path fill-rule="evenodd" clip-rule="evenodd" d="M203.966 22.9096C202.375 24.2826 200.311 25.1115 198.056 25.1115C193.024 25.1115 188.944 20.9847 188.944 15.894C188.944 10.8033 193.024 6.67647 198.056 6.67647C200.311 6.67647 202.375 7.50535 203.966 8.87841C205.557 7.50535 207.621 6.67647 209.876 6.67647C214.909 6.67647 218.988 10.8033 218.988 15.894C218.988 20.9847 214.909 25.1115 209.876 25.1115C207.621 25.1115 205.557 24.2826 203.966 22.9096Z" fill="#ED0006"/>
<path fill-rule="evenodd" clip-rule="evenodd" d="M203.966 22.9096C205.925 21.2189 207.168 18.7032 207.168 15.894C207.168 13.0848 205.925 10.5691 203.966 8.87841C205.557 7.50535 207.621 6.67647 209.877 6.67647C214.909 6.67647 218.988 10.8033 218.988 15.894C218.988 20.9847 214.909 25.1115 209.877 25.1115C207.621 25.1115 205.557 24.2826 203.966 22.9096Z" fill="#F9A000"/>
<path fill-rule="evenodd" clip-rule="evenodd" d="M203.966 8.87845C205.925 10.5691 207.168 13.0848 207.168 15.894C207.168 18.7032 205.925 21.2189 203.966 22.9095C202.007 21.2189 200.765 18.7032 200.765 15.894C200.765 13.0848 202.007 10.5691 203.966 8.87845Z" fill="#FF5E00"/>
</svg>
